<?xml version="1.0" encoding="UTF-8"?>
<svg version="1.1" xmlns="http://www.w3.org/2000/svg" width="1024" height="1024">
<path d="M0 0 C5.16905003 2.8160495 7.48463133 5.90993285 9.8515625 11.1484375 C10.18491608 11.84979828 10.51826965 12.55115906 10.86172485 13.27377319 C11.5658188 14.75921639 12.26270403 16.24809548 12.95275879 17.7401123 C13.97404548 19.9439916 15.01722931 22.13588429 16.06933594 24.32519531 C18.19226761 28.74862759 20.28572992 33.18559024 22.375 37.625 C22.74140594 38.40194214 23.10781189 39.17888428 23.48532104 39.97937012 C29.43760686 52.60188835 35.29168034 65.26497728 41 78 C38.24546445 81.45233376 34.39864694 82.75474214 30.4375 84.3984375 C29.31770752 84.8736937 29.31770752 84.8736937 28.17529297 85.35855103 C25.7863677 86.37091349 23.39340801 87.37328765 21 88.375 C17.8739569 89.69284798 14.74950879 91.01445681 11.625 92.3359375 C10.87484619 92.65230164 10.12469238 92.96866577 9.35180664 93.2946167 C3.52010188 95.76022954 -2.25983402 98.32747228 -8 101 C-8 102.65 -8 104.3 -8 106 C-1.73 109.3 4.54 112.6 11 116 C10.10958693 119.56165227 9.43598212 121.14556269 7.4453125 124.0546875 C6.9186499 124.82723877 6.3919873 125.59979004 5.84936523 126.39575195 C5.28032471 127.21390381 4.71128418 128.03205566 4.125 128.875 C3.53855713 129.72344482 2.95211426 130.57188965 2.34790039 131.44604492 C-8.25695353 146.65833706 -19.95019679 161.47838683 -33.35546875 174.328125 C-35.08654561 175.91609506 -35.08654561 175.91609506 -36 178 C-36.66 178 -37.32 178 -38 178 C-38 178.66 -38 179.32 -38 180 C-39.43359375 181.41015625 -39.43359375 181.41015625 -41.4375 183.0625 C-44.55695946 185.70583144 -47.46544593 188.44058145 -50.3125 191.375 C-54.32984953 195.44042037 -58.58712247 199.04423348 -63.046875 202.61328125 C-65.68777349 204.74765821 -68.27182905 206.93006062 -70.84643555 209.14282227 C-78.83166387 215.9985882 -87.16580137 222.269709 -96 228 C-94.57901799 217.52501293 -92.33595857 207.32537221 -89.88085938 197.05859375 C-89.40090481 195.04316699 -88.93047435 193.0256877 -88.4609375 191.0078125 C-88.18040527 189.82848145 -87.89987305 188.64915039 -87.61083984 187.43408203 C-86.56266416 181.54134053 -86.41742796 176.67657867 -89.34375 171.3046875 C-94.71629429 163.82874144 -102.16144507 157.58157982 -109.140625 151.640625 C-111.89495664 149.21033237 -114.43161903 146.57722737 -117.0078125 143.9609375 C-118.90327074 142.09521194 -120.85446735 140.35340745 -122.875 138.625 C-126.98017847 135.09937614 -130.74086395 131.27657025 -134.5390625 127.42578125 C-136.75047509 125.24596027 -139.01379047 123.20198917 -141.375 121.1875 C-144.8652904 118.19783711 -147.9224974 115.15500519 -150 111 C-150.37838031 105.98646089 -150.13135639 102.99517885 -147 99 C-142.29260023 94.76334021 -138.91231276 93.89108252 -132.68359375 93.55102539 C-131.37793457 93.4774733 -130.07227539 93.4039212 -128.72705078 93.32814026 C-128.02872131 93.29067751 -127.33039185 93.25321476 -126.61090088 93.21461678 C-124.41465737 93.09642698 -122.21879452 92.97263315 -120.02294922 92.84727478 C-113.77924894 92.49181855 -107.53501733 92.14621292 -101.29052734 91.80493164 C-97.46768559 91.59560869 -93.64527193 91.37950943 -89.82302856 91.15954399 C-88.37531982 91.07761729 -86.92746283 90.99826345 -85.47946167 90.92167854 C-69.20355098 90.68994376 -69.20355098 90.68994376 -55 84 C-52.15720385 80.71071332 -50.08772426 77.50979209 -48.22265625 73.58984375 C-47.46214966 72.00200073 -47.46214966 72.00200073 -46.6862793 70.38208008 C-46.15043213 69.24536865 -45.61458496 68.10865723 -45.0625 66.9375 C-44.49764893 65.75244873 -43.93279785 64.56739746 -43.35083008 63.34643555 C-38.67425018 53.52061543 -34.1117311 43.64158615 -29.54760742 33.76318359 C-12.68859965 -2.64606265 -12.68859965 -2.64606265 0 0 Z " fill="#23ACBF" transform="translate(232,350)"/>
<path d="M0 0 C1.70279366 0.09844711 1.70279366 0.09844711 3.43998718 0.19888306 C7.04768843 0.40937424 10.65465276 0.63048037 14.26171875 0.8515625 C16.67248741 0.99284822 19.08329453 1.13347926 21.49414062 1.2734375 C30.16899866 1.78405379 38.84285529 2.29678019 47.50854492 2.94775391 C48.46935471 3.0189444 49.43016449 3.09013489 50.42008972 3.16348267 C55.15745418 3.74991905 57.94131693 5.46866068 61.26171875 8.7890625 C63.54093448 12.41892459 64.43478168 15.14679422 63.54296875 19.42578125 C61.83918376 24.75010935 59.18261725 27.87367016 54.94921875 31.4765625 C54.28921875 31.4765625 53.62921875 31.4765625 52.94921875 31.4765625 C52.94921875 32.1365625 52.94921875 32.7965625 52.94921875 33.4765625 C51.49804688 34.921875 51.49804688 34.921875 49.48046875 36.6015625 C44.99315648 40.41735797 40.71714987 44.41852963 36.44921875 48.4765625 C31.65499483 53.03500492 26.81751072 57.51166306 21.81982422 61.84667969 C19.09386327 64.22184483 16.42429587 66.65583078 13.76171875 69.1015625 C13.02018555 69.77832031 13.02018555 69.77832031 12.26367188 70.46875 C3.92692884 77.46846749 3.92692884 77.46846749 -0.46679688 87.01773071 C-0.43523916 95.91809233 1.37539749 104.15769062 3.44921875 112.75 C3.80928779 114.28757829 4.1679864 115.82547808 4.52539062 117.36367798 C5.46115749 121.37852779 6.41145606 125.38977485 7.36621094 129.40014648 C8.8971075 135.83722033 10.40984524 142.27852336 11.91430664 148.72182083 C12.43984583 150.96008094 12.97430649 153.1960717 13.50976562 155.43197632 C13.83363678 156.80793235 14.15721987 158.18395624 14.48046875 159.56005859 C14.90682617 161.35109512 14.90682617 161.35109512 15.34179688 163.17831421 C16.41169067 168.98774509 16.35045515 172.96175882 13.20703125 177.9296875 C10.21201735 181.61299652 6.87002788 182.37973922 2.30859375 182.859375 C-3.03305443 182.76847669 -6.67192481 180.25039248 -11.05078125 177.4140625 C-11.90889404 176.87894043 -12.76700684 176.34381836 -13.65112305 175.79248047 C-15.49936016 174.63718732 -17.34256614 173.47381373 -19.18115234 172.30322266 C-22.07179555 170.46318586 -24.97492852 168.6446816 -27.8828125 166.83203125 C-31.89427947 164.32979976 -35.90524657 161.82678983 -39.9140625 159.3203125 C-41.42347412 158.37671875 -41.42347412 158.37671875 -42.96337891 157.4140625 C-45.05486477 156.1015501 -47.14299097 154.7836715 -49.22802734 153.4609375 C-52.32779532 151.49506837 -55.43823819 149.54712202 -58.55078125 147.6015625 C-59.48768799 147.00037598 -60.42459473 146.39918945 -61.38989258 145.77978516 C-66.74160065 142.45917333 -70.67853822 140.26331815 -77.05078125 140.4765625 C-84.682284 142.43157153 -91.32952006 146.8305411 -97.9465332 150.96017456 C-100.97392475 152.8489818 -104.01769955 154.71116589 -107.05859375 156.578125 C-107.69690125 156.97102219 -108.33520874 157.36391937 -108.99285889 157.76872253 C-116.0904209 162.13139025 -123.24671115 166.39440905 -130.4118042 170.64498901 C-132.52239922 171.8972232 -134.63158764 173.1518029 -136.74072266 174.40649414 C-138.04188037 175.17873662 -139.34314455 175.95079974 -140.64453125 176.72265625 C-141.53022293 177.24966629 -141.53022293 177.24966629 -142.43380737 177.787323 C-148.19838927 181.1977328 -152.16275038 183.35647064 -159.05078125 182.4765625 C-163.16717734 180.69902782 -165.81631748 178.36618462 -168.05078125 174.4765625 C-168.82020332 169.75899484 -169.04350834 166.0161109 -166.3984375 161.9140625 C-163.78632812 159.20198887 -161.20247817 157.43802713 -157.98828125 155.4765625 C-156.73279224 154.69393963 -155.47897674 153.90862774 -154.2265625 153.12109375 C-153.55447754 152.69908691 -152.88239258 152.27708008 -152.18994141 151.84228516 C-135.40153946 141.12391943 -119.29447267 129.29167151 -104.05078125 116.4765625 C-103.00013655 115.61311507 -101.9493483 114.74984229 -100.8984375 113.88671875 C-87.03192715 102.37729355 -74.14156516 89.68935841 -63.05078125 75.4765625 C-61.47066317 73.61965503 -59.88713259 71.76564774 -58.30078125 69.9140625 C-51.76715683 62.10234254 -45.94108382 53.7769789 -40.05078125 45.4765625 C-38.38544876 43.1422735 -36.71803262 40.8094817 -35.05078125 38.4765625 C-30.30653103 39.81468436 -26.4592571 41.88595172 -22.296875 44.453125 C-19.70024417 45.63628548 -17.87173244 45.55303319 -15.05078125 45.4765625 C-15.67845405 35.62912668 -17.09187739 25.96481771 -18.61328125 16.2265625 C-18.84998682 14.6914644 -19.0863174 13.15630844 -19.32226562 11.62109375 C-19.89412688 7.90557025 -20.47102099 4.1908613 -21.05078125 0.4765625 C-13.90771208 -0.5390221 -7.18944866 -0.45231396 0 0 Z " fill="#208498" transform="translate(298.05078125,440.5234375)"/>
<path d="M0 0 C1.35645574 1.11355553 2.65378913 2.29889113 3.9296875 3.50390625 C3.32067631 6.52273686 2.37414373 8.6360971 0.64453125 11.17578125 C0.19658203 11.83964844 -0.25136719 12.50351562 -0.71289062 13.1875 C-1.18146484 13.86941406 -1.65003906 14.55132812 -2.1328125 15.25390625 C-2.84147461 16.29998047 -2.84147461 16.29998047 -3.56445312 17.3671875 C-4.72788531 19.08295618 -5.89841224 20.79391023 -7.0703125 22.50390625 C-11.61121177 20.81728652 -15.47658568 18.49998551 -19.5703125 15.94140625 C-26.88706516 11.73427347 -35.13421214 10.26192149 -43.44140625 12 C-47.14588786 13.07667199 -49.64373144 14.13064782 -52.5703125 16.69140625 C-54.81812544 20.90605551 -55.87125107 24.73702756 -54.51171875 29.43359375 C-52.07021962 34.49020973 -48.13239156 36.44550144 -43.0703125 38.50390625 C-39.22964062 39.74007321 -35.34243522 40.77447039 -31.4453125 41.81640625 C-18.37368711 45.48786513 -4.61931591 49.37893908 3.16015625 61.40625 C8.04517733 70.31215485 8.89779274 79.58234044 6.9296875 89.50390625 C3.17441606 100.00102407 -2.24288347 106.7066333 -12.0703125 111.81640625 C-28.60992134 119.5513477 -46.20382947 118.8310357 -63.375 113.47265625 C-71.42547214 110.3779293 -80.19356348 105.81902978 -85.0703125 98.50390625 C-83.17623982 95.48906997 -81.2515352 92.49505582 -79.3203125 89.50390625 C-78.78148437 88.64539063 -78.24265625 87.786875 -77.6875 86.90234375 C-77.15898437 86.09023438 -76.63046875 85.278125 -76.0859375 84.44140625 C-75.36325684 83.31025391 -75.36325684 83.31025391 -74.62597656 82.15625 C-73.85592285 81.33833984 -73.85592285 81.33833984 -73.0703125 80.50390625 C-68.35966029 80.50390625 -68.0255669 81.09477062 -64.8203125 84.25390625 C-55.56004891 92.8321537 -45.86532013 94.96707019 -33.421875 94.75390625 C-27.78566326 94.33348952 -23.88437668 93.17842703 -19.6328125 89.25390625 C-16.96376583 84.55638412 -16.65927015 81.09327002 -18.0078125 75.87890625 C-23.79466167 66.40951669 -36.2293319 64.81415908 -46.18554688 61.98632812 C-58.63088923 58.32211842 -70.82214465 53.59159574 -77.3828125 41.69140625 C-81.33032783 32.84352706 -82.22333355 23.39803584 -79.31640625 14.08984375 C-75.06920307 3.74728202 -68.53932561 -3.24914777 -58.2578125 -7.71875 C-39.04403521 -15.00223351 -16.7556396 -12.10832069 0 0 Z " fill="#0B8195" transform="translate(478.0703125,444.49609375)"/>
<path d="M0 0 C0.88856689 0.00491455 1.77713379 0.0098291 2.69262695 0.01489258 C8.94031104 0.12675544 14.4584545 0.64608443 20.1875 3.3125 C20.94933594 3.66441406 21.71117187 4.01632812 22.49609375 4.37890625 C33.40293935 9.95188132 40.91196792 18.18262124 45.5625 29.5 C49.38741035 42.01934943 49.18684028 58.57385276 43.1875 70.3125 C41.41790237 73.53551355 39.47469718 76.43541742 37.1875 79.3125 C36.47013672 80.23482422 36.47013672 80.23482422 35.73828125 81.17578125 C27.38044015 90.67045716 14.68418653 94.57142909 2.484375 95.5234375 C-10.13213414 95.9920507 -21.40215849 92.28396037 -30.9375 84.125 C-41.48255262 74.21070973 -46.61041738 62.17897025 -47.0625 47.75 C-46.89591464 34.28990263 -42.86307079 22.4568241 -33.6875 12.5 C-24.29143841 3.64357709 -12.68824555 -0.08242999 0 0 Z M-17.125 28.5625 C-23.20234036 36.42826749 -23.82142612 44.52591659 -22.8125 54.3125 C-20.87057019 61.50599268 -16.75976572 67.80017802 -10.3125 71.6875 C-3.79599758 74.6484203 4.04243916 74.43573601 10.6875 72.0625 C11.5125 71.485 12.3375 70.9075 13.1875 70.3125 C14.033125 69.77625 14.87875 69.24 15.75 68.6875 C21.71168656 62.8786772 24.27441688 55.8471071 24.4375 47.625 C24.31946715 39.69319275 22.52328548 32.58835307 16.8984375 26.78515625 C10.84869289 21.57795598 5.23945626 20.64936631 -2.69140625 20.93359375 C-8.8848223 21.68548531 -12.89068159 24.04933623 -17.125 28.5625 Z " fill="#0B8095" transform="translate(898.8125,466.6875)"/>
<path d="M0 0 C7.25724669 5.1736 11.69386473 11.67025422 13.39453125 20.45703125 C14.34591762 29.81418669 14.49797206 39.14049568 14.4128418 48.53591919 C14.30280968 61.20703422 14.47141556 73.81364312 15.39453125 86.45703125 C11.74909705 86.65291726 8.10317335 86.83733661 4.45703125 87.01953125 C3.41611328 87.07560547 2.37519531 87.13167969 1.30273438 87.18945312 C0.31337891 87.23779297 -0.67597656 87.28613281 -1.6953125 87.3359375 C-3.06997681 87.40663452 -3.06997681 87.40663452 -4.47241211 87.47875977 C-6.60546875 87.45703125 -6.60546875 87.45703125 -7.60546875 86.45703125 C-7.97307606 84.12885161 -8.30788456 81.79519275 -8.60546875 79.45703125 C-9.19972656 79.92753906 -9.79398438 80.39804687 -10.40625 80.8828125 C-19.62854345 87.81028954 -29.03890227 90.81688434 -40.60546875 89.45703125 C-50.63655405 87.54920522 -58.06199066 83.86481692 -64.04296875 75.4296875 C-67.53937867 68.91033983 -67.45500837 61.66112727 -66.60546875 54.45703125 C-65.67809956 51.42888697 -64.41963036 49.03969187 -62.60546875 46.45703125 C-62.02796875 45.57015625 -61.45046875 44.68328125 -60.85546875 43.76953125 C-52.30774082 34.98436644 -40.56476121 32.6986199 -28.72631836 32.37939453 C-25.66453563 32.35917172 -22.60470395 32.36941923 -19.54296875 32.39453125 C-18.48658203 32.39904297 -17.43019531 32.40355469 -16.34179688 32.40820312 C-13.76295967 32.41987207 -11.18424581 32.4362424 -8.60546875 32.45703125 C-9.04908972 30.85057706 -9.50288414 29.24693 -9.9609375 27.64453125 C-10.21254639 26.75121094 -10.46415527 25.85789062 -10.72338867 24.9375 C-12.32135133 20.4439211 -15.02315553 18.26748436 -19.16796875 16.14453125 C-27.52897506 14.47232999 -35.85131483 14.69888303 -43.60546875 18.45703125 C-47.23027037 20.9204578 -47.23027037 20.9204578 -49.60546875 24.45703125 C-53.17051264 23.13664462 -54.91660115 20.99342257 -57.234375 18.0546875 C-59.4233924 15.50395213 -61.97313802 13.53840903 -64.60546875 11.45703125 C-61.50911675 4.3618729 -54.99241717 0.22148433 -48.07421875 -2.71875 C-33.05074723 -7.73449761 -13.94683493 -8.25937001 0 0 Z M-40.60546875 51.45703125 C-41.20359375 51.84890625 -41.80171875 52.24078125 -42.41796875 52.64453125 C-44.3970474 55.66523024 -44.7159707 58.92787528 -44.60546875 62.45703125 C-42.89508459 66.73299165 -40.65068812 68.41428178 -36.60546875 70.45703125 C-29.4620167 71.46204106 -23.01472271 70.71787976 -16.60546875 67.45703125 C-12.74050364 64.27917105 -10.354594 61.15205165 -8.60546875 56.45703125 C-8.46276533 54.38394768 -8.46276533 54.38394768 -8.53125 52.2578125 C-8.55574219 51.00355469 -8.58023438 49.74929688 -8.60546875 48.45703125 C-12.8136702 48.36960324 -17.02163651 48.31649484 -21.23046875 48.26953125 C-22.42027344 48.24439453 -23.61007812 48.21925781 -24.8359375 48.19335938 C-33.15205543 48.04819529 -33.15205543 48.04819529 -40.60546875 51.45703125 Z " fill="#0C8095" transform="translate(629.60546875,472.54296875)"/>
<path d="M0 0 C7.92 0 15.84 0 24 0 C24.495 11.88 24.495 11.88 25 24 C32.59 24 40.18 24 48 24 C48 30.6 48 37.2 48 44 C40.08 44 32.16 44 24 44 C24.07409786 50.01470255 24.15701759 56.02794489 24.26245117 62.04199219 C24.29564141 64.0865108 24.32369163 66.13111974 24.34643555 68.17578125 C24.38008993 71.12018206 24.43241166 74.06375954 24.48828125 77.0078125 C24.49467117 77.9174173 24.5010611 78.82702209 24.50764465 79.76419067 C24.62553079 84.88862409 25.09068466 88.59538689 28 93 C32.78254783 96.25620278 35.76311658 96.11761709 41.4375 95.1875 C44.1909375 94.5996875 44.1909375 94.5996875 47 94 C48.65 100.27 50.3 106.54 52 113 C42.9965231 118.40208614 32.62716431 119.31160774 22.296875 117.53515625 C13.74099804 115.31745195 7.71184803 110.86876628 3.0078125 103.41796875 C-0.07344216 96.02534614 -0.27662858 88.52608816 -0.1953125 80.62109375 C-0.1924826 79.56841812 -0.18965271 78.51574249 -0.18673706 77.4311676 C-0.17562562 74.09982484 -0.15053798 70.76876023 -0.125 67.4375 C-0.11495852 65.16601953 -0.10583472 62.89453481 -0.09765625 60.62304688 C-0.07571592 55.0819256 -0.041249 49.54100981 0 44 C-4.95 44 -9.9 44 -15 44 C-15 37.4 -15 30.8 -15 24 C-10.38 24 -5.76 24 -1 24 C-0.67 16.08 -0.34 8.16 0 0 Z " fill="#108297" transform="translate(505,444)"/>
<path d="M0 0 C8.58 0 17.16 0 26 0 C30.5 11.25 30.5 11.25 32.01464844 15.81689453 C32.52472443 17.34734909 32.52472443 17.34734909 33.04510498 18.90872192 C33.39631409 19.97267181 33.74752319 21.0366217 34.109375 22.1328125 C34.48104797 23.25066132 34.85272095 24.36851013 35.23565674 25.52023315 C36.40995113 29.05421793 37.58004221 32.58957748 38.75 36.125 C39.5505027 38.53655082 40.35128126 40.94801008 41.15234375 43.359375 C43.10475258 49.2385288 45.05372203 55.11881394 47 61 C49.14941436 58.85058564 49.59759061 57.68558259 50.5246582 54.84838867 C50.80867996 53.98956589 51.09270172 53.1307431 51.3853302 52.24589539 C51.83847847 50.8460717 51.83847847 50.8460717 52.30078125 49.41796875 C52.61903366 48.45280838 52.93728607 47.48764801 53.2651825 46.49324036 C54.28664669 43.39316357 55.30011716 40.29055322 56.3125 37.1875 C66.33683289 6.55799721 66.33683289 6.55799721 69 1 C71.50497004 -0.25248502 73.20853274 -0.11374406 76.0078125 -0.09765625 C76.99394531 -0.09443359 77.98007812 -0.09121094 78.99609375 -0.08789062 C80.02863281 -0.07951172 81.06117188 -0.07113281 82.125 -0.0625 C83.68541016 -0.05573242 83.68541016 -0.05573242 85.27734375 -0.04882812 C87.85161962 -0.03701952 90.42578146 -0.02055075 93 0 C92.37659455 4.87419818 90.94057214 9.200734 89.1484375 13.74609375 C88.85738129 14.49806534 88.56632507 15.25003693 88.26644897 16.02479553 C87.30792861 18.49779069 86.3414847 20.96760783 85.375 23.4375 C84.70416694 25.16383503 84.03392852 26.89040124 83.36425781 28.6171875 C81.96279821 32.2298583 80.55873611 35.84150334 79.15332031 39.45263672 C77.01103525 44.96374577 74.88947936 50.48267586 72.7734375 56.00390625 C72.43367889 56.89001083 72.09392029 57.77611542 71.74386597 58.68907166 C70.42264926 62.13526014 69.10167655 65.5815413 67.78192139 69.02828979 C66.87154145 71.40477852 65.95940193 73.78058501 65.046875 76.15625 C64.78184174 76.84944839 64.51680847 77.54264679 64.2437439 78.2568512 C63.99154083 78.91265671 63.73933777 79.56846222 63.47949219 80.24414062 C63.26492371 80.80379517 63.05035522 81.36344971 62.82928467 81.94006348 C61.60486914 84.98150192 60.29152323 87.98644579 59 91 C51.41 91.33 43.82 91.66 36 92 C33.54760511 87.91267519 31.69494145 84.04196519 29.98828125 79.640625 C29.70274384 78.91485764 29.41720642 78.18909027 29.12301636 77.44132996 C28.18186813 75.04588521 27.24715156 72.64798624 26.3125 70.25 C25.65507066 68.57285418 24.99726795 66.89585468 24.33911133 65.21899414 C22.58613952 60.74886469 20.83907051 56.27645296 19.09387207 51.80328369 C17.98496362 48.96146601 16.87496507 46.12007636 15.76464844 43.27880859 C12.87528406 35.88452633 9.98662168 28.48997444 7.10473633 21.09277344 C6.77748566 20.25281326 6.45023499 19.41285309 6.11306763 18.54743958 C5.50279956 16.98070258 4.8927383 15.41388501 4.28292847 13.8469696 C4.01062408 13.14779922 3.7383197 12.44862885 3.45776367 11.72827148 C3.2066684 11.08066864 2.95557312 10.4330658 2.6968689 9.76583862 C2.0897103 8.2273224 1.44870077 6.70225039 0.80200195 5.17993164 C0 3 0 3 0 0 Z " fill="#0B8095" transform="translate(718,468)"/>
<path d="M0 0 C8.25 0 16.5 0 25 0 C25 42.24 25 84.48 25 128 C17.54644008 131.72677996 8.32546799 128.36197687 0 128 C0 85.76 0 43.52 0 0 Z " fill="#097F94" transform="translate(816,431)"/>
<path d="M0 0 C0.12190678 8.39802254 -0.15672251 16.64251778 -1 25 C-1.76183594 24.89300781 -2.52367187 24.78601563 -3.30859375 24.67578125 C-11.75495346 23.69511776 -18.34192642 24.102312 -25.375 29.1875 C-31.58686022 35.84306452 -31.46134723 43.51537093 -31.51171875 52.15625 C-31.52966995 53.29912476 -31.54762115 54.44199951 -31.56611633 55.61950684 C-31.62001447 59.2463011 -31.65405004 62.87296528 -31.6875 66.5 C-31.72069107 68.96876802 -31.75518237 71.43751892 -31.79101562 73.90625 C-31.87572923 79.93738331 -31.94416552 85.96853388 -32 92 C-35.97880228 92.19585353 -39.95805156 92.3802867 -43.9375 92.5625 C-45.64196289 92.64661133 -45.64196289 92.64661133 -47.38085938 92.73242188 C-48.46044922 92.78076172 -49.54003906 92.82910156 -50.65234375 92.87890625 C-52.15269165 92.94960327 -52.15269165 92.94960327 -53.68334961 93.02172852 C-56 93 -56 93 -57 92 C-57.09519368 89.2001028 -57.12553944 86.42493826 -57.11352539 83.62475586 C-57.11367142 82.74678848 -57.11381744 81.86882111 -57.1139679 80.96424866 C-57.11326844 78.04775565 -57.10547455 75.13132567 -57.09765625 72.21484375 C-57.09579218 70.19845108 -57.09436823 68.18205796 -57.09336853 66.16566467 C-57.08954244 60.84734862 -57.07971139 55.5290597 -57.06866455 50.21075439 C-57.05845238 44.78829312 -57.05387133 39.36582748 -57.04882812 33.94335938 C-57.0380892 23.29556097 -57.02101169 12.64778274 -57 2 C-54.08196048 1.02732016 -52.18599867 0.87118204 -49.1484375 0.8671875 C-48.21515625 0.86589844 -47.281875 0.86460937 -46.3203125 0.86328125 C-44.86238281 0.86908203 -44.86238281 0.86908203 -43.375 0.875 C-42.3953125 0.87113281 -41.415625 0.86726563 -40.40625 0.86328125 C-39.01019531 0.86521484 -39.01019531 0.86521484 -37.5859375 0.8671875 C-36.7304834 0.86831543 -35.8750293 0.86944336 -34.99365234 0.87060547 C-33 1 -33 1 -32 2 C-31.76807135 3.51469448 -31.58784762 5.03754562 -31.4375 6.5625 C-31.31181641 7.80193359 -31.31181641 7.80193359 -31.18359375 9.06640625 C-31.12300781 9.70449219 -31.06242188 10.34257812 -31 11 C-30.67128906 10.54109375 -30.34257813 10.0821875 -30.00390625 9.609375 C-21.87053771 -0.88245 -12.28181719 -0.54250972 0 0 Z " fill="#0E8196" transform="translate(715,467)"/>
<path d="M0 0 C0.66 0.33 1.32 0.66 2 1 C2 2.65 2 4.3 2 6 C2.66 6.33 3.32 6.66 4 7 C4 6.01 4 5.02 4 4 C5.98 3.67 7.96 3.34 10 3 C6.57933564 8.05663427 2.08997609 10.83507897 -3 14 C-2.69249629 11.85344499 -2.3788634 9.70776715 -2.0625 7.5625 C-1.88847656 6.36753906 -1.71445313 5.17257812 -1.53515625 3.94140625 C-1 1 -1 1 0 0 Z " fill="#399DB1" transform="translate(139,564)"/>
<path d="M0 0 C1.65 0 3.3 0 5 0 C5.12867289 8.06350113 4.79681084 15.97497656 4 24 C1.69 23.67 -0.62 23.34 -3 23 C-2.04867187 22.29617188 -2.04867187 22.29617188 -1.078125 21.578125 C1.91367014 17.86649944 1.90139603 14.39805297 2.25 9.75 C2.32734375 8.90953125 2.4046875 8.0690625 2.484375 7.203125 C2.67222214 5.13680648 2.83826339 3.06852605 3 1 C2.01 0.67 1.02 0.34 0 0 Z " fill="#318398" transform="translate(710,468)"/>
<path d="M0 0 C0.99 0.66 1.98 1.32 3 2 C2.45730469 2.37511719 1.91460937 2.75023437 1.35546875 3.13671875 C-2.7790279 6.09418752 -5.58151824 8.43175668 -8 13 C-8.66 13 -9.32 13 -10 13 C-10.33 13.66 -10.66 14.32 -11 15 C-11.75 12.8125 -11.75 12.8125 -12 10 C-9.1986046 5.128008 -4.75164711 2.71028415 0 0 Z " fill="#288FA4" transform="translate(142,595)"/>
<path d="M0 0 C0.66 0 1.32 0 2 0 C2 0.66 2 1.32 2 2 C0.32464541 3.51984883 -1.41705622 4.96706453 -3.1875 6.375 C-4.15042969 7.14585937 -5.11335937 7.91671875 -6.10546875 8.7109375 C-7.06066406 9.46632813 -8.01585937 10.22171875 -9 11 C-9.86238281 11.75539063 -10.72476563 12.51078125 -11.61328125 13.2890625 C-14 15 -14 15 -18 15 C-18 14.34 -18 13.68 -18 13 C-17.01 13 -16.02 13 -15 13 C-14.67 12.34 -14.34 11.68 -14 11 C-12.34614767 9.65080468 -10.678298 8.31866272 -9 7 C-8.505 6.484375 -8.01 5.96875 -7.5 5.4375 C-5.54396925 3.56297053 -3.33728981 2.35316779 -1 1 C-0.67 0.67 -0.34 0.34 0 0 Z " fill="#2C99AE" transform="translate(168,550)"/>
<path d="M0 0 C0 0.66 0 1.32 0 2 C-1.32 2 -2.64 2 -4 2 C-4.226875 2.5775 -4.45375 3.155 -4.6875 3.75 C-6.32916107 6.56427613 -8.43559053 8.02737733 -11 10 C-11.33 10.66 -11.66 11.32 -12 12 C-12.66 12 -13.32 12 -14 12 C-12.62523555 6.80644539 -9.25658407 3.99572509 -5 1 C-2 0 -2 0 0 0 Z " fill="#30879B" transform="translate(698,468)"/>
<path d="M0 0 C1.22589844 0.01353516 1.22589844 0.01353516 2.4765625 0.02734375 C3.41628906 0.04474609 3.41628906 0.04474609 4.375 0.0625 C4.045 1.3825 3.715 2.7025 3.375 4.0625 C0.04166667 4.0625 -3.29166667 4.0625 -6.625 4.0625 C-6.625 3.0725 -6.625 2.0825 -6.625 1.0625 C-4.21954362 -0.14022819 -2.67503047 -0.03821472 0 0 Z " fill="#2AB6C8" transform="translate(227.625,349.9375)"/>
<path d="M0 0 C0.33 0 0.66 0 1 0 C2.10228696 4.40914783 2.07654536 8.48382401 2 13 C-0.31 12.67 -2.62 12.34 -5 12 C-4.360625 11.505 -3.72125 11.01 -3.0625 10.5 C-0.18484731 7.01193613 -0.29769264 4.46538959 0 0 Z " fill="#25879B" transform="translate(712,479)"/>
<path d="M0 0 C1.32 0 2.64 0 4 0 C4 0.66 4 1.32 4 2 C3.34 2 2.68 2 2 2 C2 2.66 2 3.32 2 4 C1.34 4 0.68 4 0 4 C-0.33 5.98 -0.66 7.96 -1 10 C-1.99 10 -2.98 10 -4 10 C-2.8905928 6.51329166 -1.73662334 3.22515763 0 0 Z " fill="#2CB5C7" transform="translate(211,366)"/>
<path d="M0 0 C1.32 0 2.64 0 4 0 C3.38545304 3.99455527 1.29353263 6.74466336 -1 10 C-2.31223496 6.06329512 -1.24296256 3.87511856 0 0 Z " fill="#37B4C8" transform="translate(239,466)"/>
<path d="M0 0 C-1.09283577 1.03295436 -2.19970579 2.05107835 -3.3125 3.0625 C-3.92738281 3.63097656 -4.54226562 4.19945312 -5.17578125 4.78515625 C-5.77777344 5.18605469 -6.37976563 5.58695313 -7 6 C-7.99 5.67 -8.98 5.34 -10 5 C-10 4.01 -10 3.02 -10 2 C-8.68 2.33 -7.36 2.66 -6 3 C-6 2.01 -6 1.02 -6 0 C-2.25 -1.125 -2.25 -1.125 0 0 Z " fill="#2795AB" transform="translate(149,568)"/>
<path d="M0 0 C0.33 0 0.66 0 1 0 C1.27632268 1.43267304 1.52019671 2.87163335 1.75 4.3125 C1.88921875 5.11300781 2.0284375 5.91351562 2.171875 6.73828125 C2 9 2 9 0.015625 10.79296875 C-0.64953125 11.19128906 -1.3146875 11.58960938 -2 12 C-1.85962479 10.18706911 -1.71255111 8.3746557 -1.5625 6.5625 C-1.48128906 5.55316406 -1.40007812 4.54382813 -1.31640625 3.50390625 C-1 1 -1 1 0 0 Z " fill="#2696AB" transform="translate(142,551)"/>
<path d="M0 0 C1.21386936 3.64160808 0.6674695 4.33165469 -0.9375 7.6875 C-1.31777344 8.49574219 -1.69804688 9.30398438 -2.08984375 10.13671875 C-2.39019531 10.75160156 -2.69054687 11.36648438 -3 12 C-3.66 11.67 -4.32 11.34 -5 11 C-5 8.69 -5 6.38 -5 4 C-4.01 3.67 -3.02 3.34 -2 3 C-1.34 2.01 -0.68 1.02 0 0 Z " fill="#32899C" transform="translate(880,495)"/>
<path d="M0 0 C0.33 0 0.66 0 1 0 C1.33692785 1.60341555 1.66941093 3.20776555 2 4.8125 C2.185625 5.70582031 2.37125 6.59914063 2.5625 7.51953125 C3 10 3 10 3 13 C-0.06734237 10.06602035 -0.97028556 8.84686156 -1.125 4.4375 C-1 1 -1 1 0 0 Z " fill="#44ADC0" transform="translate(83,453)"/>
<path d="M0 0 C0.66 0 1.32 0 2 0 C1.34 2.64 0.68 5.28 0 8 C-0.66 8 -1.32 8 -2 8 C-2 8.66 -2 9.32 -2 10 C-2.66 10 -3.32 10 -4 10 C-2.8905928 6.51329166 -1.73662334 3.22515763 0 0 Z " fill="#32B3C6" transform="translate(193,404)"/>
<path d="M0 0 C0.99 0.99 1.98 1.98 3 3 C0.60490662 5.89932357 -1.31245243 6.50168276 -5 7 C-5 6.34 -5 5.68 -5 5 C-4.01 4.67 -3.02 4.34 -2 4 C-0.79117904 1.99983534 -0.79117904 1.99983534 0 0 Z " fill="#318599" transform="translate(554,553)"/>
<path d="M0 0 C1.32 0.66 2.64 1.32 4 2 C2.5437455 2.67119549 1.08492133 3.33681807 -0.375 4 C-1.59316406 4.556875 -1.59316406 4.556875 -2.8359375 5.125 C-5 6 -5 6 -7 6 C-7 5.34 -7 4.68 -7 4 C-4.69 3.34 -2.38 2.68 0 2 C0 1.34 0 0.68 0 0 Z " fill="#3CB9CA" transform="translate(233,443)"/>
<path d="M0 0 C0.99 0 1.98 0 3 0 C2.34 1.98 1.68 3.96 1 6 C0.34 6 -0.32 6 -1 6 C-1 6.66 -1 7.32 -1 8 C-1.66 8 -2.32 8 -3 8 C-1.125 2.25 -1.125 2.25 0 0 Z " fill="#37B6C8" transform="translate(200,389)"/>
<path d="M0 0 C0.763125 0.309375 1.52625 0.61875 2.3125 0.9375 C4.18789677 1.67893593 6.08684652 2.36228217 8 3 C8.33 3.99 8.66 4.98 9 6 C4.58763974 6 3.21615077 3.9302707 0 1 C0 0.67 0 0.34 0 0 Z " fill="#2C8498" transform="translate(393,543)"/>
<path d="M0 0 C3.7952131 1.49097658 5.61042731 3.75700849 8 7 C5 7 5 7 3.3125 5.625 C2 4 2 4 2 2 C1.01 1.67 0.02 1.34 -1 1 C-0.67 0.67 -0.34 0.34 0 0 Z " fill="#458FA3" transform="translate(406,524)"/>
<path d="M0 0 C0 3 0 3 -2 6 C-0.68 6.66 0.64 7.32 2 8 C1.34 8.66 0.68 9.32 0 10 C-1.32 8.68 -2.64 7.36 -4 6 C-2.84826645 3.53199953 -1.95216435 1.95216435 0 0 Z " fill="#408B9E" transform="translate(569,478)"/>
<path d="M0 0 C0.66 0.33 1.32 0.66 2 1 C2.75 3.9375 2.75 3.9375 3 7 C2.34 7.66 1.68 8.32 1 9 C1 7.68 1 6.36 1 5 C0.34 5 -0.32 5 -1 5 C-1.33 3.68 -1.66 2.36 -2 1 C-1.34 0.67 -0.68 0.34 0 0 Z " fill="#3899AC" transform="translate(359,451)"/>
<path d="M0 0 C1.32 0.66 2.64 1.32 4 2 C3.01 2.495 3.01 2.495 2 3 C1.34444881 5.52733235 1.34444881 5.52733235 1 8 C0.34 8 -0.32 8 -1 8 C-0.67 5.36 -0.34 2.72 0 0 Z " fill="#26879C" transform="translate(564,524)"/>
<path d="M0 0 C0.99 0.33 1.98 0.66 3 1 C3.71727778 2.64551962 4.38325228 4.31422289 5 6 C5.66 6.66 6.32 7.32 7 8 C4.625 7.6875 4.625 7.6875 2 7 C0 4 0 4 0 0 Z " fill="#38B7C8" transform="translate(220,451)"/>
<path d="M0 0 C2.1519437 3.22791555 2.20086443 4.28400809 2 8 C1.01 8 0.02 8 -1 8 C-0.67 5.36 -0.34 2.72 0 0 Z " fill="#3FA4B7" transform="translate(143,543)"/>
<path d="M0 0 C0.99 0 1.98 0 3 0 C2.67 1.65 2.34 3.3 2 5 C1.01 5.33 0.02 5.66 -1 6 C-0.67 4.02 -0.34 2.04 0 0 Z " fill="#27859A" transform="translate(779,491)"/>
<path d="M0 0 C3.36720387 1.39332574 4.9859524 2.9789286 7 6 C4 6 4 6 1.8125 4.125 C0 2 0 2 0 0 Z " fill="#4AAEBF" transform="translate(106,484)"/>
<path d="M0 0 C3.36720387 1.39332574 4.9859524 2.9789286 7 6 C4 6 4 6 1.8125 4.125 C0 2 0 2 0 0 Z " fill="#47AFC0" transform="translate(88,467)"/>
<path d="M0 0 C4 1 4 1 4 1 Z " fill="#EEF5F6" transform="translate(161,438)"/>
<path d="" fill="#EFF5F6" transform="translate(0,0)"/>
<path d="M0 0 C2 1 2 1 2 1 Z " fill="#F0F6F6" transform="translate(613,522)"/>
<path d="M0 0 C2 1 2 1 2 1 Z " fill="#F0F5F7" transform="translate(496,489)"/>
<path d="M0 0 C2 1 2 1 2 1 Z " fill="#EFF5F7" transform="translate(492,489)"/>
<path d="" fill="#EEF5F5" transform="translate(0,0)"/>
<path d="" fill="#F0F4F7" transform="translate(0,0)"/>
<path d="" fill="#F0F7F4" transform="translate(0,0)"/>
<path d="" fill="#EDF6F8" transform="translate(0,0)"/>
<path d="" fill="#EEF7F7" transform="translate(0,0)"/>
<path d="" fill="#EEF2F4" transform="translate(0,0)"/>
<path d="" fill="#EFF8F7" transform="translate(0,0)"/>
<path d="" fill="#EDFBF9" transform="translate(0,0)"/>
<path d="" fill="#EEF7F3" transform="translate(0,0)"/>
<path d="" fill="#F0F8F7" transform="translate(0,0)"/>
<path d="" fill="#EDF3F6" transform="translate(0,0)"/>
<path d="" fill="#EFF4F4" transform="translate(0,0)"/>
<path d="" fill="#F0F6F3" transform="translate(0,0)"/>
<path d="" fill="#EEF6F7" transform="translate(0,0)"/>
<path d="" fill="#F0F8F9" transform="translate(0,0)"/>
<path d="" fill="#EBF5F6" transform="translate(0,0)"/>
<path d="" fill="#ECF5F8" transform="translate(0,0)"/>
<path d="" fill="#F0F5F8" transform="translate(0,0)"/>
<path d="" fill="#F0F4F5" transform="translate(0,0)"/>
<path d="" fill="#F0F7F6" transform="translate(0,0)"/>
<path d="" fill="#F0FAF7" transform="translate(0,0)"/>
<path d="" fill="#EAF7F2" transform="translate(0,0)"/>
<path d="" fill="#EFF7F5" transform="translate(0,0)"/>
<path d="" fill="#F0F9F7" transform="translate(0,0)"/>
<path d="" fill="#F0F6F6" transform="translate(0,0)"/>
<path d="" fill="#F0F3F4" transform="translate(0,0)"/>
<path d="" fill="#F0F3F5" transform="translate(0,0)"/>
<path d="" fill="#F0F4F5" transform="translate(0,0)"/>
<path d="" fill="#F0FCFD" transform="translate(0,0)"/>
<path d="" fill="#EFF5F4" transform="translate(0,0)"/>
<path d="" fill="#F0F8F6" transform="translate(0,0)"/>
<path d="" fill="#EEF3F5" transform="translate(0,0)"/>
<path d="" fill="#ECF1F1" transform="translate(0,0)"/>
<path d="" fill="#F0F4F5" transform="translate(0,0)"/>
<path d="" fill="#EFFDFB" transform="translate(0,0)"/>
<path d="" fill="#EFFCF8" transform="translate(0,0)"/>
<path d="" fill="#F0F5F1" transform="translate(0,0)"/>
<path d="" fill="#EFF6F3" transform="translate(0,0)"/>
<path d="" fill="#EFF8F6" transform="translate(0,0)"/>
<path d="" fill="#EFF7F7" transform="translate(0,0)"/>
<path d="" fill="#F0F4F7" transform="translate(0,0)"/>
<path d="" fill="#F0F2F7" transform="translate(0,0)"/>
<path d="" fill="#EFF4F6" transform="translate(0,0)"/>
<path d="" fill="#F0F8F8" transform="translate(0,0)"/>
<path d="" fill="#EFF5F4" transform="translate(0,0)"/>
<path d="" fill="#F0F8F8" transform="translate(0,0)"/>
<path d="" fill="#EFF5F5" transform="translate(0,0)"/>
<path d="" fill="#F0F4F7" transform="translate(0,0)"/>
</svg>
